#!OML:ASF I:\Actors\actors\Patient Classification 1\Patient 1\Session 1\Subject1.ASF
:FULLY-SPECIFIED
:DEGREES
1317
root 0.717443 17.468 9.55849 10.1961 -1.65439 -9.29601
lowerback -3.20719 1.61788 6.97401
upperback -9.48508 2.42652 2.15597
thorax -8.0296 0.781773 -1.69589
lowerneck -6.33124 -1.88653 -2.39638
upperneck 12.5944 -3.54633 9.51359
head 5.02944 -1.26517 3.13199
rclavicle -4.37326e-015 1.35174e-014
rhumerus -56.7632 -1.4487 -85.7319
rradius 90.9197
rwrist 24.8085
rhand 1.03273 -29.9221
rfingers 7.12502
rthumb 26.5792 301.923
lclavicle -4.37326e-015 1.35174e-014
lhumerus -6.17292 -26.8444 84.8777
lradius 138.003
lwrist 12.542
lhand -21.8709 -9.16319
lfingers 7.12502
lthumb 4.53341 20.7683
rfemur -3.78164 23.9064 25.7046
rtibia 2.8366
rfoot -13.3255 -25.485
rtoes 3.13967
lfemur 8.20409 -49.8852 -14.7866
ltibia -5.15833
lfoot -33.0065 57.4718
ltoes 19.9376
1318
root 0.714963 17.4706 9.55356 10.2374 -1.76176 -9.30582
lowerback -3.08878 1.59317 6.8953
upperback -9.56454 2.41061 2.19476
thorax -8.19162 0.774736 -1.61465
lowerneck -6.1929 -1.69202 -2.31759
upperneck 11.218 -3.19484 9.67383
head 4.56444 -1.12152 3.18226
rclavicle -2.18663e-015 -2.16675e-014
rhumerus -56.4876 -1.35106 -85.7201
rradius 90.8938
rwrist 24.7841
rhand 0.657878 -29.7307
rfingers 7.12502
rthumb 26.2204 302.061
lclavicle -2.18663e-015 -2.16675e-014
lhumerus -4.08024 -26.5742 83.7584
lradius 137.774
lwrist 12.0933
lhand -22.1366 -9.75186
lfingers 7.12502
lthumb 4.27684 20.185
rfemur -3.84393 23.9707 25.6894
rtibia 2.81149
rfoot -13.2468 -25.4408
rtoes 3.01027
lfemur 8.15239 -49.8297 -14.724
ltibia -5.1805
lfoot -32.9217 57.5437
ltoes 19.7886
1319
root 0.713875 17.4734 9.54956 10.2657 -1.82548 -9.31572
lowerback -2.96344 1.56057 6.83529
upperback -9.64259 2.38484 2.23103
thorax -8.35673 0.761464 -1.54603
lowerneck -6.16362 -1.52269 -2.24241
upperneck 10.0074 -2.89466 9.88397
head 4.17548 -0.994394 3.24507
rclavicle 8.10048e-015 1.11319e-014
rhumerus -56.179 -1.50816 -85.4296
rradius 90.9399
rwrist 25.7246
rhand 1.87935 -29.4532
rfingers 7.12502
rthumb 27.3892 302.517
lclavicle 8.10048e-015 1.11319e-014
lhumerus -2.09115 -26.2498 82.7143
lradius 137.561
lwrist 11.7637
lhand -22.3542 -10.4072
lfingers 7.12502
lthumb 4.06674 19.5338
rfemur -3.87544 24.0451 25.6875
rtibia 2.78284
rfoot -13.1884 -25.455
rtoes 2.96083
lfemur 8.10435 -49.7897 -14.6703
ltibia -5.19114
lfoot -32.9213 57.5596
ltoes 19.7722
1320
root 0.711168 17.4744 9.54661 10.3233 -1.90538 -9.3453
lowerback -2.81859 1.55964 6.81915
upperback -9.75224 2.40365 2.22673
thorax -8.56299 0.763331 -1.54668
lowerneck -5.95924 -1.38033 -1.95319
upperneck 8.50028 -2.59022 9.76751
head 3.66284 -0.888877 3.16991
rclavicle 5.1684e-015 2.98177e-014
rhumerus -55.9806 -1.59726 -85.4743
rradius 91.0859
rwrist 25.9773
rhand 1.76951 -29.8824
rfingers 7.12502
rthumb 27.2841 302.072
lclavicle 5.1684e-015 2.98177e-014
lhumerus -0.24476 -25.9645 81.7212
lradius 137.421
lwrist 11.5254
lhand -22.5687 -11.1974
lfingers 7.12502
lthumb 3.85959 18.7474
rfemur -3.94813 24.1713 25.7056
rtibia 2.79209
rfoot -13.1897 -25.4864
rtoes 3.0687
lfemur 8.07727 -49.8266 -14.6035
ltibia -5.22038
lfoot -33.2952 57.5953
ltoes 20.0712
1321
root 0.709856 17.4734 9.54383 10.406 -1.97635 -9.38009
lowerback -2.71851 1.55473 6.83811
upperback -9.84252 2.41234 2.22324
thorax -8.72195 0.759278 -1.56418
lowerneck -5.87792 -1.2765 -1.8168
upperneck 6.8892 -2.31131 9.49725
head 3.48481 -0.825824 3.41841
rclavicle 7.30534e-015 9.56154e-014
rhumerus -55.7289 -1.60802 -85.5822
rradius 91.1755
rwrist 25.9583
rhand 1.17304 -30.1297
rfingers 7.12502
rthumb 26.7135 301.736
lclavicle 7.30534e-015 9.56154e-014
lhumerus 1.57402 -25.6525 80.7875
lradius 137.289
lwrist 11.2959
lhand -22.7611 -11.4715
lfingers 7.12502
lthumb 3.67377 18.4766
rfemur -4.07223 24.2577 25.705
rtibia 2.83241
rfoot -13.1732 -25.4873
rtoes 3.13381
lfemur 8.02198 -49.9209 -14.5255
ltibia -5.23194
lfoot -33.6882 57.6764
ltoes 20.3329
